<?xml version="1.0" encoding="UTF-8" standalone="no"?>
<svg
   width="1080"
   zoomAndPan="magnify"
   viewBox="0 0 810 809.999993"
   height="1080"
   preserveAspectRatio="xMidYMid meet"
   version="1.0"
   id="svg27"
   sodipodi:docname="raiz_canino.svg"
   inkscape:version="1.4.2 (f4327f4, 2025-05-13)"
   xmlns:inkscape="http://www.inkscape.org/namespaces/inkscape"
   xmlns:sodipodi="http://sodipodi.sourceforge.net/DTD/sodipodi-0.dtd"
   xmlns="http://www.w3.org/2000/svg"
   xmlns:svg="http://www.w3.org/2000/svg">
  <sodipodi:namedview
     id="namedview27"
     pagecolor="#505050"
     bordercolor="#eeeeee"
     borderopacity="1"
     inkscape:showpageshadow="0"
     inkscape:pageopacity="0"
     inkscape:pagecheckerboard="0"
     inkscape:deskcolor="#505050"
     showgrid="false"
     inkscape:zoom="0.74722222"
     inkscape:cx="469.07063"
     inkscape:cy="550.70632"
     inkscape:window-width="1920"
     inkscape:window-height="1009"
     inkscape:window-x="-8"
     inkscape:window-y="-8"
     inkscape:window-maximized="1"
     inkscape:current-layer="svg27" />
  <defs
     id="defs10">
    <inkscape:path-effect
       effect="fillet_chamfer"
       id="path-effect42"
       is_visible="true"
       lpeversion="1"
       nodesatellites_param="F,0,0,1,0,0,0,1 @ F,0,0,1,0,0,0,1 @ F,0,0,1,0,0,0,1 @ F,0,0,1,0,0,0,1 @ F,0,0,1,0,0,0,1 @ F,0,0,1,0,0,0,1 @ F,0,0,1,0,0,0,1 @ F,0,0,1,0,0,0,1 @ F,0,0,1,0,0,0,1 @ F,0,0,1,0,0,0,1 @ F,0,0,1,0,0,0,1 @ F,0,0,1,0,0,0,1 @ F,0,0,1,0,0,0,1 @ F,0,0,1,0,0,0,1 @ F,0,0,1,0,0,0,1 @ F,0,0,1,0,0,0,1 @ F,0,0,1,0,0,0,1 @ F,0,0,1,0,0,0,1 @ F,0,0,1,0,0,0,1 @ F,0,0,1,0,0,0,1 @ F,0,0,1,0,0,0,1 @ F,0,0,1,0,0,0,1 @ F,0,0,1,0,0,0,1 @ F,0,0,1,0,0,0,1 @ F,0,0,1,0,0,0,1 @ F,0,0,1,0,0,0,1 @ F,0,0,1,0,0,0,1 @ F,0,0,1,0,0,0,1 @ F,0,0,1,0,0,0,1 @ F,0,0,1,0,0,0,1 @ F,0,0,1,0,0,0,1 @ F,0,0,1,0,0,0,1 @ F,0,0,1,0,0,0,1 @ F,0,0,1,0,0,0,1 @ F,0,0,1,0,0,0,1 @ F,0,0,1,0,0,0,1 @ F,0,0,1,0,0,0,1"
       radius="0"
       unit="px"
       method="auto"
       mode="F"
       chamfer_steps="1"
       flexible="false"
       use_knot_distance="true"
       apply_no_radius="true"
       apply_with_radius="true"
       only_selected="false"
       hide_knots="false" />
    <inkscape:path-effect
       effect="fillet_chamfer"
       id="path-effect41"
       is_visible="true"
       lpeversion="1"
       nodesatellites_param="F,0,0,1,0,0,0,1 @ F,0,0,1,0,0,0,1 @ F,0,0,1,0,0,0,1 @ F,0,0,1,0,0,0,1 @ F,0,0,1,0,0,0,1 @ F,0,0,1,0,0,0,1 @ F,0,0,1,0,0,0,1 @ F,0,0,1,0,0,0,1 @ F,0,0,1,0,0,0,1 @ F,0,0,1,0,0,0,1 @ F,0,0,1,0,0,0,1 @ F,0,0,1,0,0,0,1 @ F,0,0,1,0,0,0,1 @ F,0,0,1,0,0,0,1 @ F,0,0,1,0,0,0,1 @ F,0,0,1,0,0,0,1 @ F,0,0,1,0,0,0,1 @ F,0,0,1,0,0,0,1 @ F,0,0,1,0,0,0,1 @ F,0,0,1,0,0,0,1 @ F,0,0,1,0,0,0,1 @ F,0,0,1,0,0,0,1 @ F,0,0,1,0,0,0,1 @ F,0,0,1,0,0,0,1 @ F,0,0,1,0,0,0,1 @ F,0,0,1,0,0,0,1 @ F,0,0,1,0,0,0,1 @ F,0,0,1,0,0,0,1 @ F,0,0,1,0,0,0,1 @ F,0,0,1,0,0,0,1 @ F,0,0,1,0,0,0,1 @ F,0,0,1,0,0,0,1 @ F,0,0,1,0,0,0,1 @ F,0,0,1,0,0,0,1 @ F,0,0,1,0,0,0,1 @ F,0,0,1,0,0,0,1 @ F,0,0,1,0,0,0,1"
       radius="0"
       unit="px"
       method="auto"
       mode="F"
       chamfer_steps="1"
       flexible="false"
       use_knot_distance="true"
       apply_no_radius="true"
       apply_with_radius="true"
       only_selected="false"
       hide_knots="false" />
    <inkscape:path-effect
       effect="fillet_chamfer"
       id="path-effect40"
       is_visible="true"
       lpeversion="1"
       nodesatellites_param="F,0,0,1,0,0,0,1 @ F,0,0,1,0,0,0,1 @ F,0,0,1,0,0,0,1 @ F,0,0,1,0,0,0,1 @ F,0,0,1,0,0,0,1 @ F,0,0,1,0,0,0,1 @ F,0,0,1,0,0,0,1 @ F,0,0,1,0,0,0,1 @ F,0,0,1,0,0,0,1 @ F,0,0,1,0,0,0,1 @ F,0,0,1,0,0,0,1 @ F,0,0,1,0,0,0,1 @ F,0,0,1,0,0,0,1 @ F,0,0,1,0,0,0,1 @ F,0,0,1,0,0,0,1 @ F,0,0,1,0,0,0,1 @ F,0,0,1,0,0,0,1 @ F,0,0,1,0,0,0,1 @ F,0,0,1,0,0,0,1 @ F,0,0,1,0,0,0,1 @ F,0,0,1,0,0,0,1 @ F,0,0,1,0,0,0,1 @ F,0,0,1,0,0,0,1 @ F,0,0,1,0,0,0,1 @ F,0,0,1,0,0,0,1 @ F,0,0,1,0,0,0,1 @ F,0,0,1,0,0,0,1 @ F,0,0,1,0,0,0,1 @ F,0,0,1,0,0,0,1 @ F,0,0,1,0,0,0,1 @ F,0,0,1,0,0,0,1 @ F,0,0,1,0,0,0,1 @ F,0,0,1,0,0,0,1 @ F,0,0,1,0,0,0,1 @ F,0,0,1,0,0,0,1 @ F,0,0,1,0,0,0,1 @ F,0,0,1,0,0,0,1"
       radius="0"
       unit="px"
       method="auto"
       mode="F"
       chamfer_steps="1"
       flexible="false"
       use_knot_distance="true"
       apply_no_radius="true"
       apply_with_radius="true"
       only_selected="false"
       hide_knots="false" />
    <inkscape:path-effect
       effect="fillet_chamfer"
       id="path-effect39"
       is_visible="true"
       lpeversion="1"
       nodesatellites_param="F,0,0,1,0,0,0,1 @ F,0,0,1,0,0,0,1 @ F,0,0,1,0,0,0,1 @ F,0,0,1,0,0,0,1 @ F,0,0,1,0,0,0,1 @ F,0,0,1,0,0,0,1 @ F,0,0,1,0,0,0,1 @ F,0,0,1,0,0,0,1 @ F,0,0,1,0,0,0,1 @ F,0,0,1,0,0,0,1 @ F,0,0,1,0,0,0,1 @ F,0,0,1,0,0,0,1 @ F,0,0,1,0,0,0,1 @ F,0,0,1,0,0,0,1 @ F,0,0,1,0,0,0,1 @ F,0,0,1,0,0,0,1 @ F,0,0,1,0,0,0,1 @ F,0,0,1,0,0,0,1 @ F,0,0,1,0,0,0,1 @ F,0,0,1,0,0,0,1 @ F,0,0,1,0,0,0,1 @ F,0,0,1,0,0,0,1 @ F,0,0,1,0,0,0,1 @ F,0,0,1,0,0,0,1 @ F,0,0,1,0,0,0,1 @ F,0,0,1,0,0,0,1 @ F,0,0,1,0,0,0,1 @ F,0,0,1,0,0,0,1 @ F,0,0,1,0,0,0,1 @ F,0,0,1,0,0,0,1 @ F,0,0,1,0,0,0,1 @ F,0,0,1,0,0,0,1 @ F,0,0,1,0,0,0,1 @ F,0,0,1,0,0,0,1 @ F,0,0,1,0,0,0,1 @ F,0,0,1,0,0,0,1 @ F,0,0,1,0,0,0,1"
       radius="0"
       unit="px"
       method="auto"
       mode="F"
       chamfer_steps="1"
       flexible="false"
       use_knot_distance="true"
       apply_no_radius="true"
       apply_with_radius="true"
       only_selected="false"
       hide_knots="false" />
    <clipPath
       id="ddb4aa37b7">
      <path
         d="M 496.566406 148.660156 L 499.773438 148.660156 L 499.773438 151.097656 L 496.566406 151.097656 Z M 496.566406 148.660156 "
         clip-rule="nonzero"
         id="path1" />
    </clipPath>
    <clipPath
       id="f226792b74">
      <path
         d="M 499.769531 149.535156 C 498.335938 151.5625 496.988281 151.1875 496.734375 150.738281 C 496.394531 150.363281 496.648438 149.085938 497.15625 148.785156 C 497.578125 148.488281 499.347656 148.9375 499.347656 148.9375 "
         clip-rule="nonzero"
         id="path2" />
    </clipPath>
    <clipPath
       id="0bec22db9f">
      <path
         d="M 0.566406 0.660156 L 3.773438 0.660156 L 3.773438 3.097656 L 0.566406 3.097656 Z M 0.566406 0.660156 "
         clip-rule="nonzero"
         id="path3" />
    </clipPath>
    <clipPath
       id="4a012b4f24">
      <path
         d="M 3.769531 1.535156 C 2.335938 3.5625 0.988281 3.1875 0.734375 2.738281 C 0.394531 2.363281 0.648438 1.085938 1.15625 0.785156 C 1.578125 0.488281 3.347656 0.9375 3.347656 0.9375 "
         clip-rule="nonzero"
         id="path4" />
    </clipPath>
    <clipPath
       id="550e6bdda5">
      <rect
         x="0"
         width="4"
         y="0"
         height="4"
         id="rect4" />
    </clipPath>
    <clipPath
       id="827008a989">
      <path
         d="M 496 147 L 500 147 L 500 150 L 496 150 Z M 496 147 "
         clip-rule="nonzero"
         id="path5" />
    </clipPath>
    <clipPath
       id="f914395456">
      <path
         d="M 497.09375 146.980469 L 500.230469 148.132812 L 499.390625 150.421875 L 496.253906 149.269531 Z M 497.09375 146.980469 "
         clip-rule="nonzero"
         id="path6" />
    </clipPath>
    <clipPath
       id="6ef0ca64b2">
      <path
         d="M 499.914062 148.949219 C 497.816406 150.339844 496.628906 149.503906 496.539062 148.988281 C 496.335938 148.515625 497.023438 147.410156 497.621094 147.308594 C 498.136719 147.179688 499.710938 148.234375 499.710938 148.234375 "
         clip-rule="nonzero"
         id="path7" />
    </clipPath>
    <clipPath
       id="a424857c61">
      <path
         d="M 0.320312 0.121094 L 3.921875 0.121094 L 3.921875 3 L 0.320312 3 Z M 0.320312 0.121094 "
         clip-rule="nonzero"
         id="path8" />
    </clipPath>
    <clipPath
       id="e56d532752">
      <path
         d="M 1.09375 -0.0195312 L 4.230469 1.132812 L 3.390625 3.421875 L 0.253906 2.269531 Z M 1.09375 -0.0195312 "
         clip-rule="nonzero"
         id="path9" />
    </clipPath>
    <clipPath
       id="7d46665ac9">
      <path
         d="M 3.914062 1.949219 C 1.816406 3.339844 0.628906 2.503906 0.539062 1.988281 C 0.335938 1.515625 1.023438 0.410156 1.621094 0.308594 C 2.136719 0.179688 3.710938 1.234375 3.710938 1.234375 "
         clip-rule="nonzero"
         id="path10" />
    </clipPath>
    <clipPath
       id="a53dd943ee">
      <rect
         x="0"
         width="4"
         y="0"
         height="3"
         id="rect10" />
    </clipPath>
  </defs>
  <rect
     x="-66.927055"
     width="972"
     fill="#ffffff"
     y="-22.591284"
     height="972"
     fill-opacity="1"
     id="rect12"
     style="display:inline;stroke:#486030;stroke-opacity:1;fill:#ffffff;fill-opacity:0" />
  <g
     id="raiz-principal"
     transform="matrix(1.204556,0,0,1.0638642,-35.768242,-1.7958027)">
    <path
       style="fill:#ffffff;fill-opacity:1;stroke:#000000;stroke-width:3.40157;stroke-linecap:round;stroke-linejoin:round;stroke-dasharray:none;stroke-opacity:1;paint-order:fill markers stroke"
       d="m 216.80465,717.46457 c 0,0 30.99893,-26.9746 68.70365,-42.96497 19.22695,-8.15404 40.25374,-13.03412 61.12597,-13.75111 17.74963,-0.60974 37.41226,2.65921 52.6611,8.09921 17.56645,6.26681 27.20082,11.06469 43.82616,21.64693 10.94174,6.96456 20.04575,14.27113 29.32225,22.32437 10.04055,8.71652 28.38181,28.02832 28.38181,28.02832 l 13.61728,15.7345 c 0,0 -2.98735,-15.83566 -4.15739,-23.8055 -1.62361,-11.05936 -2.90309,-23.52604 -4.42231,-38.19944 -1.53397,-14.81581 -3.66954,-44.5341 -3.66954,-44.5341 0,0 -1.43977,-20.9749 -2.10991,-31.4656 -0.54414,-8.5182 -1.55162,-25.55962 -1.55162,-25.55962 l -2.85155,-56.96192 c 0,0 -0.88205,-18.17018 -1.26894,-27.25768 -0.39732,-9.33216 -0.72968,-18.68588 -1.08075,-28.00101 -0.69968,-18.56521 -1.44325,-37.46846 -2.08165,-55.98386 -0.62146,-18.02408 -1.27664,-37.72885 -1.85049,-56.59531 -0.5536,-18.20069 -0.98888,-36.4425 -1.53642,-54.60571 -0.33284,-11.04117 -0.73904,-23.09349 -0.93432,-34.64406 -0.2474,-14.63324 -0.6869,-28.29634 -1.02945,-42.44453 -0.34839,-14.38883 -0.73543,-28.77678 -1.04333,-43.16654 -0.1875,-8.76277 -0.32392,-17.52656 -0.48966,-26.28977 -0.16012,-8.46589 -0.30709,-16.93206 -0.48769,-25.39755 -0.20351,-9.53936 -0.47099,-19.0773 -0.67152,-28.61673 -0.25958,-12.34801 -0.34143,-30.25057 -0.68822,-37.04583 -0.26731,-5.23777 -1.27778,-12.070113 -2.19824,-18.968906 -0.92046,-6.898793 -2.14898,-14.565627 -4.19753,-21.612794 -1.63551,-5.626295 -3.38694,-11.698456 -6.42121,-16.362732 -2.43573,-3.744189 -5.01955,-7.414338 -10.33367,-7.614435 -6.95969,-0.26206 -13.23506,7.046558 -14.30049,8.101072 -1.76801,1.749885 -5.59318,5.940723 -12.79308,17.531815 -7.1999,11.591093 -10.98265,20.09776 -14.88846,28.126194 -3.90581,8.028436 -5.64591,12.158716 -8.48976,18.630246 -4.8852,11.11686 -13.5926,33.01346 -13.5926,33.01346 l -11.62191,30.65169 -11.71064,33.22449 -10.02502,29.27658 -18.23525,56.4741 -15.30367,49.28225 -14.90444,50.03636 -18.55629,63.73418 -10.62386,38.01521 -10.62385,38.01521 -16.74912,61.12911 -8.20632,30.42991 -8.25067,30.91785 -11.88807,44.8464 z"
       id="path36"
       sodipodi:nodetypes="csassaccsscaccassassaaaaassassszzsccccccccccccccc" />
  </g>
</svg>
