<?xml version="1.0" encoding="UTF-8" standalone="no"?>
<svg
   width="1080"
   zoomAndPan="magnify"
   viewBox="0 0 810 809.999993"
   height="1080"
   preserveAspectRatio="xMidYMid meet"
   version="1.0"
   id="svg6"
   sodipodi:docname="raiz_incisivo.svg"
   inkscape:version="1.4.2 (f4327f4, 2025-05-13)"
   xmlns:inkscape="http://www.inkscape.org/namespaces/inkscape"
   xmlns:sodipodi="http://sodipodi.sourceforge.net/DTD/sodipodi-0.dtd"
   xmlns="http://www.w3.org/2000/svg"
   xmlns:svg="http://www.w3.org/2000/svg">
  <defs
     id="defs6" />
  <sodipodi:namedview
     id="namedview6"
     pagecolor="#505050"
     bordercolor="#eeeeee"
     borderopacity="1"
     inkscape:showpageshadow="0"
     inkscape:pageopacity="0"
     inkscape:pagecheckerboard="0"
     inkscape:deskcolor="#505050"
     inkscape:zoom="0.74722222"
     inkscape:cx="461.04089"
     inkscape:cy="557.39777"
     inkscape:window-width="1920"
     inkscape:window-height="1009"
     inkscape:window-x="-8"
     inkscape:window-y="-8"
     inkscape:window-maximized="1"
     inkscape:current-layer="svg6" />
  <rect
     x="-81"
     width="972"
     fill="#ffffff"
     y="-80.999999"
     height="971.999992"
     fill-opacity="1"
     id="rect1"
     style="fill:#ffffff;fill-opacity:0" />
  <rect
     x="-81"
     width="972"
     fill="#ffffff"
     y="-80.999999"
     height="971.999992"
     fill-opacity="1"
     id="rect2"
     style="fill:#000000;fill-opacity:0" />
  <g
     id="raiz-principal"
     transform="matrix(1.0506179,0,0,1.0651657,-31.983723,-37.041334)">
    <path
       style="fill:#ffffff;fill-opacity:1;stroke:#000000;stroke-width:3.40125;stroke-linecap:round;stroke-linejoin:round;stroke-dasharray:none;stroke-opacity:1;paint-order:fill markers stroke"
       d="m 244.73255,761.76555 c 0,0 5.34111,-5.94132 8.01421,-8.90969 2.41861,-2.68576 4.79238,-5.41273 7.26042,-8.05314 6.00714,-6.4267 12.10201,-12.77549 18.36536,-18.95277 3.58527,-3.536 7.21823,-7.02908 10.99338,-10.3616 7.30212,-6.44595 14.76316,-12.72932 22.52537,-18.61313 5.95595,-4.51465 12.09541,-8.80111 18.42048,-12.78218 5.67107,-3.56944 11.48731,-6.92896 17.47633,-9.93455 6.45843,-3.24116 13.05962,-6.24349 19.85256,-8.70773 6.31909,-2.29234 12.81067,-4.13624 19.36592,-5.62437 5.26695,-1.19568 10.60877,-2.13649 15.98599,-2.64238 5.76235,-0.54212 11.57439,-0.62028 17.35848,-0.41313 4.48992,0.1608 8.97633,0.60212 13.41711,1.28377 4.9413,0.75849 9.85008,1.79005 14.67045,3.11509 4.84023,1.3305 9.58708,3.00744 14.25993,4.84116 3.71258,1.45689 7.36256,3.08601 10.92172,4.88551 5.10291,2.58002 10.08528,5.41132 14.924,8.45811 4.66281,2.93602 9.18002,6.11036 13.5654,9.4466 4.9804,3.78891 9.78771,7.81086 14.44997,11.98502 4.77504,4.27513 9.37664,8.74852 13.83025,13.35754 4.26354,4.41231 8.33035,9.01434 12.32598,13.67065 4.57019,5.32586 13.31448,16.3091 13.31448,16.3091 l 9.0626,12.39948 6.96644,10.06634 6.58374,10.03717 7.81057,12.21199 -2.498,-13.72413 c 0,0 -2.03416,-10.67402 -3.06404,-16.00857 -1.26817,-6.56885 -2.58612,-13.12809 -3.83603,-19.70044 -1.25628,-6.60587 -2.48405,-13.20619 -3.68202,-19.83394 -0.55156,-3.05151 -1.24187,-6.56447 -1.8506,-9.84898 -0.92194,-4.9745 -1.83874,-9.95001 -2.72885,-14.9303 -1.0476,-5.86141 -2.05914,-11.72923 -3.07388,-17.59642 -1.45705,-8.4246 -2.89108,-16.85317 -4.32855,-25.28113 -1.46925,-8.6143 -2.96867,-17.22359 -4.39125,-25.84572 -1.52894,-9.26673 -2.98812,-18.54488 -4.454,-27.82179 -2.48892,-15.75127 -4.98887,-31.50106 -7.37105,-47.26882 -1.67319,-11.0749 -3.2519,-22.16387 -4.86176,-33.24815 -1.55778,-10.72573 -3.16482,-21.44459 -4.64219,-32.18169 -1.08664,-7.89735 -2.07273,-15.80821 -3.10525,-23.71282 -1.25777,-9.62901 -2.53597,-19.2554 -3.76394,-28.88825 -1.48558,-11.65369 -2.94775,-23.31046 -4.3599,-34.97328 -1.54002,-12.71886 -3.0411,-25.44255 -4.48536,-38.17264 -1.77731,-15.66564 -3.47747,-31.34006 -5.14406,-47.01787 -1.38884,-13.06504 -2.73382,-26.13478 -4.04623,-39.20772 -1.08607,-10.81835 -2.21623,-21.633 -3.16799,-32.464 -1.22327,-13.92088 -2.48629,-27.6615 -3.66984,-41.49743 -1.52543,-17.83259 -2.97973,-35.02041 -4.42263,-53.5107 -0.70072,-8.97947 -1.29707,-17.92216 -2.28973,-26.84944 -0.83272,-7.48898 -1.85124,-14.96016 -3.07389,-22.395445 -0.59423,-3.613722 -1.27809,-7.214391 -2.07016,-10.789965 -0.72524,-3.273885 -1.52836,-6.53289 -2.45418,-9.7558 -0.90451,-3.148727 -1.86482,-6.287412 -3.02636,-9.350654 -0.96624,-2.548198 -1.9952,-5.08487 -3.27285,-7.492056 -1.37465,-2.58993 -3.34901,-5.801113 -4.7027,-7.433782 -2.2588,-2.724307 -4.62689,-4.713716 -7.52787,-6.163453 -1.67864,-0.838885 -3.5938,-1.235239 -5.46731,-1.342628 -2.13186,-0.122197 -4.30346,0.214705 -6.35506,0.806903 -4.50776,1.301174 -8.07678,3.906358 -11.60947,6.620301 -5.02139,3.857618 -9.19711,8.734873 -13.345,13.519281 -3.70257,4.270753 -7.01568,8.872381 -10.25674,13.503133 -4.79773,6.854866 -9.25456,13.948103 -13.58155,21.109425 -4.02663,6.66422 -7.83194,13.46329 -11.51139,20.32529 -3.46468,6.46147 -6.89109,12.95321 -9.94308,19.61954 -2.48651,5.4312 -4.63905,11.01079 -6.80646,16.57702 -1.97504,5.07219 -3.87995,10.17365 -5.64591,15.32238 -2.26732,6.61049 -4.3113,13.29622 -6.35164,19.98025 -1.7875,5.85572 -3.52529,11.72751 -5.15974,17.62778 -1.95314,7.0507 -3.77927,14.13665 -5.55182,21.2349 -1.30714,5.23453 -2.52276,10.49158 -3.74825,15.74582 -1.32764,5.6922 -2.6856,11.37822 -3.90509,17.09457 -0.6616,3.10127 -1.22086,6.22353 -1.8506,9.33143 -0.88629,4.37406 -1.83944,8.73447 -2.71317,13.11106 -0.81813,4.09811 -1.57907,8.20742 -2.36815,12.31122 -1.13484,5.90199 -2.47349,11.76846 -3.40323,17.70621 -0.77879,4.97373 -1.24363,9.99988 -1.81924,14.99302 -0.56452,4.89689 -1.1272,9.91573 -1.74082,14.86757 -1.22474,9.88359 -2.5417,19.75565 -3.87372,29.62535 -1.12102,8.30629 -2.26496,16.60965 -3.46596,24.90475 -0.83099,5.73944 -1.69553,11.47409 -2.58771,17.20434 -1.31557,8.44963 -2.66195,16.89473 -4.0776,25.32818 -0.77926,4.64228 -1.60926,9.27592 -2.43088,13.91089 -1.49542,8.43596 -2.97678,16.87468 -4.5481,25.29682 -1.56052,8.36428 -3.18117,16.71746 -4.84608,25.06158 -1.24381,6.23367 -2.53089,12.45876 -3.84235,18.67855 -2.01268,9.54535 -4.06362,19.08285 -6.17913,28.60594 -1.3396,6.03026 -2.71402,12.05289 -4.12466,18.06692 -1.47351,6.2821 -3.01553,12.54793 -4.53241,18.8197 -1.33295,5.51129 -2.63583,11.03004 -4.01487,16.52997 -1.59954,6.37935 -3.27266,12.74009 -4.94017,19.10201 -1.71425,6.54025 -3.43544,13.07883 -5.20679,19.60385 -2.06514,7.60726 -4.1701,15.20386 -6.32028,22.78753 -1.90627,6.72337 -3.85791,13.43392 -5.83411,20.13708 -2.09434,7.10389 -4.21581,14.19994 -6.38301,21.28194 -1.84157,6.01788 -3.7504,12.01498 -5.62531,18.02256 -1.22897,3.93785 -2.44621,7.87938 -3.68653,11.81367 -2.21373,7.02196 -6.70259,21.04642 -6.70259,21.04642 z"
       id="path7"
       sodipodi:nodetypes="caaaaaaaaaaaaaaaaaaaaccccccaasaaaaaaaaaaaaaaasasaaaaaasaasaaaaaaaaaaaaaaaaasaaaaaaaaaaaaaaaaaaaac" />
  </g>
</svg>
