<?xml version="1.0" encoding="UTF-8" standalone="no"?>
<svg
   width="1080"
   zoomAndPan="magnify"
   viewBox="0 0 810 809.999993"
   height="1080"
   preserveAspectRatio="xMidYMid meet"
   version="1.0"
   id="svg8"
   sodipodi:docname="raiz_premolar.svg"
   inkscape:version="1.4.2 (f4327f4, 2025-05-13)"
   xmlns:inkscape="http://www.inkscape.org/namespaces/inkscape"
   xmlns:sodipodi="http://sodipodi.sourceforge.net/DTD/sodipodi-0.dtd"
   xmlns="http://www.w3.org/2000/svg"
   xmlns:svg="http://www.w3.org/2000/svg">
  <defs
     id="defs8" />
  <sodipodi:namedview
     id="namedview8"
     pagecolor="#505050"
     bordercolor="#eeeeee"
     borderopacity="1"
     inkscape:showpageshadow="0"
     inkscape:pageopacity="0"
     inkscape:pagecheckerboard="0"
     inkscape:deskcolor="#505050"
     inkscape:zoom="0.5283659"
     inkscape:cx="828.02467"
     inkscape:cy="451.39173"
     inkscape:window-width="1920"
     inkscape:window-height="1009"
     inkscape:window-x="-8"
     inkscape:window-y="-8"
     inkscape:window-maximized="1"
     inkscape:current-layer="svg8"
     showgrid="false" />
  <path
     style="fill:#000000;fill-opacity:1;stroke:#000000;stroke-width:6.66653;stroke-linecap:round;stroke-linejoin:round;stroke-dasharray:none;stroke-opacity:1;paint-order:fill markers stroke"
     d="m 267.83412,774.04437 c 0,0 9.17918,-8.48491 13.94409,-12.48877 7.73009,-6.49546 15.57833,-12.84906 23.73671,-18.69345 6.56609,-4.70373 13.30645,-9.14469 20.25393,-13.14966 6.75006,-3.89117 13.64059,-7.55261 20.76971,-10.54089 9.64878,-4.04443 19.51841,-7.66416 29.6454,-9.94283 9.5439,-2.14748 19.31997,-3.32779 29.06565,-3.45614 8.57488,-0.11293 17.18566,0.76879 25.63418,2.36653 7.78955,1.47312 15.47559,3.73896 22.92347,6.62287 8.38043,3.24502 16.48418,7.36986 24.318,11.9518 6.79178,3.97246 13.27099,8.57953 19.57035,13.41599 6.02297,4.62425 11.79348,9.6448 17.37672,14.88018 5.46026,5.1201 10.66469,10.56422 15.7351,16.13759 5.00871,5.50558 9.74591,11.29729 14.4906,17.0724 3.57978,4.3572 10.22926,13.40615 10.54297,13.259 0.30751,-0.14423 -2.2187,-8.57158 -3.48559,-13.11746 -2.11979,-7.60632 -3.90505,-15.29932 -5.53807,-23.03413 -3.55261,-16.82709 -6.53047,-33.79832 -9.25799,-50.80623 -1.75994,-10.97434 -3.22936,-22.00385 -4.58312,-33.04601 -2.76099,-22.52055 -5.15536,-45.09709 -7.21626,-67.70594 -2.34219,-25.69494 -4.12764,-51.44799 -5.84999,-77.20074 -1.03144,-15.42224 -1.87576,-30.85901 -2.68503,-46.2969 -0.92133,-17.57522 -1.74993,-35.15657 -2.47107,-52.74283 -0.8653,-21.10194 -1.57688,-42.21134 -2.22665,-63.32242 -0.67467,-21.91945 -1.12435,-43.84642 -1.73601,-65.76805 -0.45875,-16.44097 -0.18762,-32.92921 -1.45044,-49.3204 -1.20116,-15.5907 -3.94109,-31.43081 -5.81773,-46.50806 -1.57872,-12.68376 -3.52504,-25.31283 -5.56888,-37.91792 -2.11599,-13.05008 -4.38799,-26.0735 -6.92883,-39.03376 -2.27558,-11.60722 -4.59313,-23.2158 -7.44544,-34.67161 -3.24597,-13.03688 -6.7468,-26.02278 -10.99089,-38.71662 -1.84928,-5.53112 -3.97628,-10.95725 -6.29317,-16.276394 -2.48773,-5.711356 -4.85225,-11.556853 -8.15453,-16.757944 -2.41326,-3.800881 -5.25127,-7.32503 -8.42044,-10.40148 -2.04149,-1.981757 -4.23638,-3.892398 -6.73635,-5.104429 -2.24482,-1.088328 -4.7214,-1.83241 -7.17953,-1.829891 -2.82356,0.0029 -5.65258,0.898512 -8.24317,2.11882 -3.48099,1.639735 -6.63038,4.121349 -9.48408,6.838011 -3.71698,3.538486 -6.78783,7.836998 -9.74997,12.13506 -3.10367,4.503416 -8.35396,14.229797 -8.35396,14.229797 0,0 -1.47576,-3.257314 -2.50398,-4.671024 -1.30873,-1.799379 -2.73926,-3.634497 -4.58692,-4.743275 -1.76109,-1.056825 -3.83929,-1.68598 -5.84999,-1.613186 -2.47693,0.08967 -4.90386,1.193266 -7.06873,2.504054 -4.08859,2.475544 -7.4374,6.227764 -10.72499,9.847701 -2.8013,3.08451 -5.2233,6.56082 -7.60055,10.04032 -4.27267,6.25377 -8.15411,12.81937 -11.94372,19.43055 -3.26319,5.69277 -6.53033,11.40612 -9.28465,17.40803 -2.93785,6.40184 -5.42109,13.05196 -7.68919,19.76763 -2.56394,7.59162 -4.77888,15.33069 -6.67368,23.15087 -3.64754,15.05417 -6.51054,30.33516 -9.01493,45.66263 -1.72904,10.58208 -2.95394,21.25723 -4.14374,31.92676 -1.40029,12.55721 -2.57706,25.14634 -3.52329,37.75353 -1.2271,16.34963 -2.23821,32.72524 -2.79204,49.1181 -0.80099,23.70864 -0.38797,47.44792 -0.76638,71.16896 -0.42371,26.5605 -0.84136,53.12376 -1.6841,79.67246 -0.85365,26.89236 -2.00181,53.77523 -3.41565,80.63969 -0.66902,12.71239 -1.43497,25.42042 -2.39762,38.11055 -1.605,21.15791 -3.4327,42.29956 -5.63154,63.39435 -1.27083,12.1917 -2.71159,24.36477 -4.36914,36.5015 -1.58132,11.57863 -3.35058,23.12903 -5.31818,34.63755 -1.3288,7.77219 -2.76475,15.52518 -4.37988,23.23307 -1.7261,8.23745 -3.65385,16.42536 -5.67333,24.58369 -1.59993,6.46339 -5.10347,19.2984 -5.10347,19.2984 z"
     id="path9"
     sodipodi:nodetypes="caaaaaaaaaaaaassaaaaaaaaaasaaaaaaaaaaaacaaaaaaaaaaaaaaaaaaaaaaac" />
  <g
     id="raiz-vestibular"
     transform="matrix(0.99909002,0,0,1.0855877,2.9058038,-59.177014)">
    <path
       d="m 265.23096,767.65848 c 0,0 9.18754,-7.81596 13.95679,-11.50416 7.73714,-5.98336 15.59252,-11.83604 23.75833,-17.21966 6.57207,-4.33288 13.31857,-8.42372 20.27238,-12.11294 6.75621,-3.58439 13.65302,-6.95716 20.78863,-9.70984 9.65757,-3.72557 19.53619,-7.05992 29.6724,-9.15894 9.55259,-1.97817 19.33792,-3.32766 29.09212,-3.18366 7.26531,0.10725 -5.2806,-530.94946 -5.2806,-606.631003 0,0 -1.47711,-3.000512 -2.50626,-4.302765 -1.30992,-1.657516 -2.74176,-3.347953 -4.5911,-4.369315 -1.76269,-0.973505 -3.84279,-1.553058 -5.85532,-1.486003 -2.47918,0.0826 -4.90832,1.099189 -7.07517,2.306635 -4.09231,2.280372 -7.44417,5.736767 -10.73475,9.071308 -2.80386,2.841323 -5.22806,6.043563 -7.60748,9.248743 -4.27656,5.76072 -8.16153,11.80869 -11.9546,17.89864 -3.26616,5.24395 -6.53627,10.50686 -9.2931,16.03558 -2.94053,5.89712 -5.42603,12.02295 -7.6962,18.20915 -2.56627,6.9931 -4.78323,14.12202 -6.67975,21.32566 -3.65087,13.8673 -6.51647,27.94354 -9.02315,42.06259 -1.73061,9.74779 -2.95663,19.58131 -4.14751,29.40965 -1.40156,11.5672 -2.57941,23.16381 -3.5265,34.77705 -1.22822,15.06062 -2.24025,30.14518 -2.79458,45.24563 -0.80172,21.83945 -0.38832,43.70712 -0.76708,65.558 -0.4241,24.46647 -0.84213,48.93548 -1.68563,73.39108 -0.85443,24.77217 -2.00364,49.53559 -3.41876,74.28206 -0.66963,11.71015 -1.43628,23.41628 -2.39981,35.10592 -1.60646,19.48982 -3.43582,38.96466 -5.63667,58.39634 -1.27198,11.2305 -2.71406,22.44385 -4.37312,33.62372 -1.58276,10.66577 -3.35363,21.30554 -5.32302,31.90673 -1.33001,7.15943 -2.76727,14.30117 -4.38387,21.40137 -1.72767,7.58801 -3.65718,15.13039 -5.6785,22.64551 -1.60138,5.95382 -5.10812,17.77692 -5.10812,17.77692 z"
       style="fill:#ffffff;fill-opacity:1;stroke:#000000;stroke-width:3.40125;stroke-linecap:round;stroke-linejoin:round;stroke-opacity:0;paint-order:fill markers stroke"
       id="path1"
       sodipodi:nodetypes="csssssscsssssssssssssssssssssssc"
       inkscape:label="pathMesial" />
  </g>
  <g
     id="raiz-palatal"
     transform="matrix(0.99909002,0,0,1.0855877,2.9058038,-59.177014)">
    <path
       d="m 402.78222,704.65789 c 8.58269,-0.10403 17.20132,0.70818 25.65753,2.17995 7.79665,1.35698 15.48969,3.44418 22.94435,6.10073 8.38806,2.98918 16.4992,6.78882 24.34015,11.00952 6.79797,3.65927 13.28308,7.90312 19.58818,12.35827 6.02845,4.25967 11.80422,8.8844 17.39254,13.70703 5.46524,4.71643 10.67441,9.73133 15.74943,14.8653 5.01328,5.07152 9.75479,10.40661 14.5038,15.72641 3.58304,4.01368 10.23858,12.34921 10.55257,12.21366 0.30779,-0.13286 -2.22072,-7.89579 -3.48876,-12.08328 -2.12172,-7.00663 -3.90861,-14.09312 -5.54311,-21.21812 -3.55585,-15.50044 -6.53642,-31.13366 -9.26643,-46.80066 -1.76154,-10.10913 -3.2323,-20.26907 -4.58729,-30.44067 -2.76351,-20.74503 -5.16006,-41.54163 -7.22283,-62.368 -2.34433,-23.66915 -4.1314,-47.39183 -5.85532,-71.11424 -1.03238,-14.20635 -1.87747,-28.42608 -2.68748,-42.64685 -0.92217,-16.18959 -1.75152,-32.38483 -2.47332,-48.58459 -0.86609,-19.43826 -1.57831,-38.8834 -2.22868,-58.33008 -0.67528,-20.19132 -1.12537,-40.38957 -1.73759,-60.5829 -0.45916,-15.14476 -0.18779,-30.33307 -1.45176,-45.43198 -1.20225,-14.36153 -3.94468,-28.9528 -5.82303,-42.84136 -1.58016,-11.68378 -3.52825,-23.31717 -5.57395,-34.92848 -2.11792,-12.02121 -4.39199,-24.01786 -6.93514,-35.95634 -2.27765,-10.6921 -4.59731,-21.38546 -7.45222,-31.9381 -3.24893,-12.00905 -6.75295,-23.97114 -11.0009,-35.6642 -1.85097,-5.09505 -3.9799,-10.09338 -6.2989,-14.993161 -2.49,-5.26107 -4.85667,-10.64571 -8.16196,-15.43675 -2.41546,-3.50122 -5.25605,-6.74752 -8.42811,-9.58143 -2.04335,-1.82551 -4.24024,-3.58552 -6.74249,-4.70199 -2.24686,-1.00253 -4.7257,-1.68795 -7.18607,-1.68563 -2.82613,0.003 -5.65772,0.82768 -8.25067,1.95178 -3.48416,1.51045 -6.63642,3.79642 -9.49272,6.2989 -3.72037,3.25951 -6.79401,7.21913 -9.75885,11.17833 -3.1065,4.14837 -9.05163,13.92345 -9.05163,13.92345 z"
       style="fill:#ffffff;fill-opacity:1;stroke:#000000;stroke-width:3.40125;stroke-linecap:round;stroke-linejoin:round;stroke-opacity:0;paint-order:fill markers stroke"
       id="path1-0"
       inkscape:label="pathDistal"
       sodipodi:nodetypes="csssssssssssssssssssssssssssscssscc" />
  </g>
</svg>
