<?xml version="1.0" encoding="UTF-8" standalone="no"?>
<svg
   width="1080"
   zoomAndPan="magnify"
   viewBox="0 0 810 809.999993"
   height="1080"
   preserveAspectRatio="xMidYMid meet"
   version="1.0"
   id="svg32"
   sodipodi:docname="raiz_molar_inferior.svg"
   inkscape:version="1.4.2 (f4327f4, 2025-05-13)"
   xmlns:inkscape="http://www.inkscape.org/namespaces/inkscape"
   xmlns:sodipodi="http://sodipodi.sourceforge.net/DTD/sodipodi-0.dtd"
   xmlns="http://www.w3.org/2000/svg"
   xmlns:svg="http://www.w3.org/2000/svg">
  <sodipodi:namedview
     id="namedview32"
     pagecolor="#505050"
     bordercolor="#eeeeee"
     borderopacity="1"
     inkscape:showpageshadow="0"
     inkscape:pageopacity="0"
     inkscape:pagecheckerboard="0"
     inkscape:deskcolor="#505050"
     showgrid="false"
     inkscape:zoom="0.70710678"
     inkscape:cx="307.59145"
     inkscape:cy="314.66252"
     inkscape:window-width="1920"
     inkscape:window-height="1009"
     inkscape:window-x="-8"
     inkscape:window-y="-8"
     inkscape:window-maximized="1"
     inkscape:current-layer="svg32" />
  <defs
     id="defs8">
    <clipPath
       id="dfdfd19c84">
      <path
         d="M 458.457031 744.546875 L 461.328125 744.546875 L 461.328125 746.984375 L 458.457031 746.984375 Z M 458.457031 744.546875 "
         clip-rule="nonzero"
         id="path1" />
    </clipPath>
    <clipPath
       id="4fb813178c">
      <path
         d="M 461.324219 745.425781 C 460.050781 747.449219 458.851562 747.074219 458.550781 746.625 C 458.324219 746.25 458.550781 744.976562 458.925781 744.675781 C 459.300781 744.375 460.949219 744.824219 460.949219 744.824219 "
         clip-rule="nonzero"
         id="path2" />
    </clipPath>
    <clipPath
       id="900d9c810d">
      <path
         d="M 0.457031 0.546875 L 3.328125 0.546875 L 3.328125 2.984375 L 0.457031 2.984375 Z M 0.457031 0.546875 "
         clip-rule="nonzero"
         id="path3" />
    </clipPath>
    <clipPath
       id="48275fb38b">
      <path
         d="M 3.324219 1.425781 C 2.050781 3.449219 0.851562 3.074219 0.550781 2.625 C 0.324219 2.25 0.550781 0.976562 0.925781 0.675781 C 1.300781 0.375 2.949219 0.824219 2.949219 0.824219 "
         clip-rule="nonzero"
         id="path4" />
    </clipPath>
    <clipPath
       id="7bf062d813">
      <rect
         x="0"
         width="4"
         y="0"
         height="3"
         id="rect4" />
    </clipPath>
    <clipPath
       id="08c9a32c14">
      <path
         d="M 458.089844 744.023438 L 460.960938 744.023438 L 460.960938 746.460938 L 458.089844 746.460938 Z M 458.089844 744.023438 "
         clip-rule="nonzero"
         id="path5" />
    </clipPath>
    <clipPath
       id="cee4d464f3">
      <path
         d="M 460.949219 744.898438 C 459.675781 746.925781 458.476562 746.550781 458.25 746.101562 C 457.949219 745.726562 458.175781 744.449219 458.550781 744.148438 C 459 743.851562 460.574219 744.300781 460.574219 744.300781 "
         clip-rule="nonzero"
         id="path6" />
    </clipPath>
    <clipPath
       id="f00d35a827">
      <path
         d="M 0.0898438 0.0234375 L 2.960938 0.0234375 L 2.960938 2.460938 L 0.0898438 2.460938 Z M 0.0898438 0.0234375 "
         clip-rule="nonzero"
         id="path7" />
    </clipPath>
    <clipPath
       id="b76a49478c">
      <path
         d="M 2.949219 0.898438 C 1.675781 2.925781 0.476562 2.550781 0.25 2.101562 C -0.0507812 1.726562 0.175781 0.449219 0.550781 0.148438 C 1 -0.148438 2.574219 0.300781 2.574219 0.300781 "
         clip-rule="nonzero"
         id="path8" />
    </clipPath>
    <clipPath
       id="e62e0ee38d">
      <rect
         x="0"
         width="3"
         y="0"
         height="3"
         id="rect8" />
    </clipPath>
  </defs>
  <path
     style="fill:#ffffff;fill-opacity:0;stroke:#000000;stroke-width:6.97795;stroke-linecap:round;stroke-linejoin:round;stroke-dasharray:none;stroke-opacity:1;paint-order:fill markers stroke"
     d="m 199.2483,789.4134 c 0,0 20.64693,-18.56573 41.22495,-23.73567 7.41954,-1.86407 15.32123,-2.45049 22.74264,-0.59714 6.93162,1.73105 14.40943,6.2877 19.26548,10.6736 4.98325,4.50079 3.51393,6.62166 16.66538,10.26307 8.72777,2.41656 18.10075,0.49468 26.7837,-2.72432 5.36208,-1.98788 10.638,-4.50265 15.75695,-7.3148 5.13336,-2.82006 14.9425,-9.55401 14.9425,-9.55401 0,0 10.81822,-5.6512 20.73778,-6.86693 6.08707,-0.74602 14.77676,-1.44054 22.18352,-1.57205 6.01559,-0.10686 12.0329,0.26028 18.04086,0.63658 6.37315,0.39918 12.73876,0.99124 19.09139,1.71915 6.67475,0.76483 13.3356,1.71133 19.98069,2.78168 6.62571,1.06724 17.03851,2.02976 19.82536,3.6288 2.78685,1.59903 7.96173,6.43732 18.46505,9.70925 5.00428,1.55891 10.14593,2.78542 15.31617,2.96899 5.80618,0.20613 11.65847,-0.64654 17.33621,-2.10802 3.70155,-0.95278 7.1552,-2.96327 10.77023,-4.3072 3.4708,-1.29029 6.92038,-2.71961 10.47954,-3.60469 5.56452,-1.38377 11.22502,-2.51164 16.9084,-2.64334 5.34576,-0.12386 10.73817,0.45154 15.9731,1.74766 6.18915,1.53235 12.33321,3.76078 18.01203,7.06902 3.75713,2.18876 7.32755,4.72505 10.782,7.48597 3.50568,2.80188 6.82294,5.93849 10.05015,9.18067 1.88667,1.89543 5.43236,5.99315 5.43236,5.99315 0,0 0.93891,-26.85163 3.91352,-130.79213 0.82603,-28.8639 2.37317,-83.62742 2.37317,-83.62742 0,0 5.78044,-40.22613 8.32391,-68.19586 2.12975,-23.42025 4.16311,-46.75901 5.62153,-70.20146 0.81226,-13.05625 1.34165,-26.13795 1.7416,-39.22135 0.23472,-7.67813 0.32574,-15.36217 0.38601,-23.04506 0.0576,-7.34092 0.10683,-14.68407 -0.0233,-22.02367 -0.14654,-8.26696 -0.347,-20.70092 -0.78551,-31.03865 -0.27133,-6.39657 -0.66762,-12.78619 -1.14161,-19.16597 -0.92328,-12.42703 -1.85338,-24.86439 -3.31506,-37.21787 -1.63193,-13.79234 -3.82104,-27.48735 -6.08461,-41.1525 -2.56664,-15.49481 -5.49867,-30.90253 -8.49731,-46.28686 -2.20006,-11.28729 -4.39458,-22.58233 -6.96492,-33.758 -2.56673,-11.15984 -5.04554,-22.3839 -8.43984,-33.22549 -4.80748,-15.35533 -9.10453,-31.332689 -16.83372,-44.889909 -3.01653,-5.291084 -6.46904,-10.819716 -11.24824,-13.73385 -2.68933,-1.639829 -6.04852,-2.541645 -8.96367,-1.596817 -5.49113,1.77973 -9.93536,7.297284 -13.27828,12.783845 -7.77737,12.764533 -13.28531,30.675921 -19.99304,54.057881 -3.47453,12.11161 -8.80034,37.18004 -8.80034,37.18004 0,0 -4.98455,24.5051 -7.28285,36.8106 -1.69774,9.09004 -3.19601,18.39213 -4.80583,27.34405 -1.53358,8.52791 -1.62495,11.3629 -2.79487,16.76322 -1.16994,5.40032 -3.59564,13.31319 -3.59564,13.31319 l -10.41411,36.62666 -13.1278,40.45517 c 0,0 -6.76826,19.13752 -10.62801,28.44025 -3.7839,9.11988 -7.70975,18.18963 -12.26588,26.79376 -3.80893,7.19303 -7.56474,14.58796 -12.5532,20.67167 -3.52736,4.30185 -7.49657,8.33906 -12.05825,10.91408 -2.06207,1.16403 -4.37531,1.94036 -6.6569,1.90113 -3.01959,-0.052 -6.08123,-1.12412 -8.74548,-2.81803 -2.76459,-1.7577 -5.0015,-4.57111 -7.09058,-7.35376 -1.99938,-2.66315 -3.61376,-5.72488 -5.11688,-8.81671 -3.2987,-6.78534 -6.07959,-13.94077 -8.49952,-21.23276 -2.35101,-7.08437 -4.07221,-14.44896 -5.81553,-21.77831 -2.6457,-11.12323 -4.95613,-22.36273 -7.04037,-33.65412 -2.00575,-10.86615 -3.6848,-21.81757 -5.2546,-32.78504 -2.29029,-16.00115 -4.29228,-32.06302 -6.07278,-48.15596 -2.47778,-22.39527 -4.546,-44.85566 -6.41329,-67.33483 -2.14367,-25.80623 -3.89439,-51.65882 -5.49817,-77.52063 -0.46146,-7.441334 -0.87416,-14.967886 -1.27169,-22.454912 -0.19662,-3.703285 -0.5629,-7.29174 -0.74492,-10.945921 -0.18708,-3.755899 -0.0644,-7.564959 -0.35657,-11.2795 -0.62449,-7.940516 -0.39209,-16.164555 -2.47697,-23.743198 -1.90052,-6.908437 -4.32186,-14.275696 -8.93327,-19.037081 -3.11389,-3.215158 -7.42721,-4.9467595 -11.53794,-5.2866685 -5.31989,-0.439903 -10.62625,1.9723375 -15.58197,4.3185315 -10.96012,5.188865 -21.00609,13.002808 -30.56415,21.234141 -8.37636,7.213663 -16.00175,15.666198 -23.23181,24.465541 -5.13878,6.254177 -9.92096,12.959154 -14.24032,20.038343 -7.25906,11.897199 -13.76118,24.491014 -19.50309,37.511724 -4.71593,10.69409 -8.66393,21.87582 -12.20638,33.19474 -4.13056,13.1981 -7.63841,26.69528 -10.51162,40.35868 -3.79876,18.06479 -6.48368,36.45637 -8.85988,54.86302 -1.18965,9.21535 -2.15507,18.48463 -2.69718,27.78594 -0.62953,10.80138 -0.38363,21.67288 -0.59756,32.50872 -0.21348,10.81297 -0.46245,21.6249 -0.68457,32.43762 -3.09336,150.58701 -9.02633,451.76833 -9.02633,451.76833 z"
     id="path32"
     sodipodi:nodetypes="csasssacsaaaazsaaaaaasaacscsaaasaaaaaaaaaasscasscccaaaaaaaaaaaaaassasaaaaaaaaaaasaac" />
  <g
     id="raiz-distal"
     transform="matrix(0.99871781,0,0,1.1898257,19.124065,-120.15637)">
    <path
       d="m 421.60437,456.43546 c 1.70744,-0.44991 2.55508,-0.76205 3.7736,-1.29465 1.21462,-0.5309 2.36785,-1.18769 3.50197,-1.8843 3.33369,-2.04764 5.44625,-3.78646 9.09466,-7.41916 5.06523,-5.04341 8.7555,-11.32825 12.56931,-17.3737 4.56199,-7.23142 8.49288,-14.85418 12.28163,-22.51907 3.86471,-7.81856 10.64166,-23.90287 10.64166,-23.90287 l 13.14466,-34.00092 10.42748,-30.78321 c 0,0 2.42881,-6.65045 3.60024,-11.18919 1.17143,-4.53875 1.26291,-6.92144 2.79846,-14.0888 1.61189,-7.52373 3.11209,-15.34175 4.81201,-22.98156 2.30125,-10.34227 7.29219,-30.93781 7.29219,-30.93781 0,0 5.33266,-21.06899 8.81165,-31.24831 6.71634,-19.65158 12.23135,-34.70537 20.0187,-45.43344 3.34722,-4.61123 7.79715,-9.24851 13.29533,-10.7443 2.9189,-0.79409 6.28239,-0.0361 8.97518,1.34206 4.78534,2.44921 8.24228,7.0958 11.26268,11.54274 7.73912,11.39429 12.04168,24.82261 16.85533,37.72813 3.39866,9.11191 5.88066,18.54528 8.45067,27.92467 2.57365,9.3927 4.77098,18.88572 6.97387,28.37223 3.00249,12.92989 5.93828,25.87946 8.50822,38.90222 2.26647,11.48499 4.4584,22.9951 6.09242,34.58699 1.46355,10.3826 2.39485,20.83569 3.31931,31.2801 0.4746,5.36195 0.8714,10.73217 1.14308,16.10822 0.43907,8.68844 0.63979,19.13867 0.78652,26.08672 0.13027,6.16863 0.081,12.34026 0.0233,18.51 -0.0603,6.45715 -0.15149,12.91528 -0.38651,19.36843 -0.40046,10.99606 -0.93053,21.9907 -1.74384,32.96395 -1.46029,19.70241 -3.49625,39.31769 -5.62874,59.00146 -2.54673,23.50742 -8.3346,57.31584 -8.3346,57.31584 0,0 -1.54912,46.02651 -2.37621,70.28544 -2.97843,87.35774 -3.91855,109.92544 -3.91855,109.92544 0,0 -3.55024,-3.44396 -5.43933,-5.03699 -3.23135,-2.72492 -6.55287,-5.36111 -10.06306,-7.71598 -3.45888,-2.32044 -7.03388,-4.45209 -10.79584,-6.29165 -5.68611,-2.78044 -11.83805,-4.65334 -18.03516,-5.94123 -5.24164,-1.08933 -10.64098,-1.57294 -15.9936,-1.46883 -5.69068,0.11069 -11.35844,1.05862 -16.93011,2.22162 -3.56373,0.74387 -7.01773,1.94515 -10.49299,3.0296 -3.61967,1.12951 -7.07776,2.81924 -10.78405,3.62002 -5.68504,1.22831 -11.54484,1.94495 -17.35848,1.7717 -5.17687,-0.15428 -10.32512,-1.18511 -15.33583,-2.49531 -10.5168,-2.74993 -15.69056,-6.83254 -18.48875,-8.16023 -2.95306,-1.40117 -12.30637,-2.08458 -18.49397,-2.88579 -6.73315,-0.87185 -16.9104,-1.70692 -20.26066,-2.08912 z"
       style="fill:#ffffff;fill-opacity:1;stroke:#000000;stroke-width:3.40125;stroke-linecap:round;stroke-linejoin:round;stroke-dasharray:none;stroke-opacity:0;paint-order:fill markers stroke"
       id="path1-0"
       inkscape:label="pathDistal"
       sodipodi:nodetypes="casssscccssscssssssssssssssssscscsssssssssssacc" />
  </g>
  <g
     id="raiz-mesial"
     transform="matrix(0.99871781,0,0,1.1898257,19.124065,-120.15637)">
    <path
       d="m 180.50421,764.63728 c 0,0 20.67344,-15.60374 41.27788,-19.94887 7.42906,-1.56667 15.34089,-2.05953 22.77184,-0.50186 6.94051,1.45487 14.42793,5.28455 19.29021,8.97072 4.98965,3.78273 3.51844,5.56524 16.68678,8.62569 8.73897,2.03102 18.12398,0.41576 26.81808,-2.28968 5.36896,-1.67073 10.65166,-3.78429 15.77719,-6.14779 5.13994,-2.37014 14.96167,-8.02976 14.96167,-8.02976 0,0 10.83211,-4.7496 20.76441,-5.77137 6.09488,-0.627 14.79574,-1.21072 22.212,-1.32124 6.02331,-0.0898 12.04835,0.21875 18.06402,0.53502 6.38133,0.33549 13.69261,1.06746 20.0534,1.67924 6.68332,0.64281 4.94326,-284.18897 2.66388,-284.03236 -1.49102,0.10245 -3.38545,0.0967 -5.04738,-0.17146 -2.11671,-0.34157 -4.83714,-1.10293 -6.17097,-1.81476 -2.76814,-1.47728 -5.00793,-3.84183 -7.09969,-6.18053 -2.00195,-2.23828 -3.6184,-4.81153 -5.12344,-7.4101 -3.30294,-5.70279 -6.0874,-11.71664 -8.51044,-17.84527 -2.35403,-5.95411 -4.07743,-12.14376 -5.82299,-18.30378 -2.6491,-9.34862 -4.9625,-18.79496 -7.04942,-28.28491 -2.00832,-9.13255 -3.68952,-18.33678 -5.26134,-27.55449 -2.29323,-13.44832 -4.29779,-26.94766 -6.08058,-40.47312 -2.48096,-18.82231 -4.55183,-37.69935 -6.42152,-56.59218 -2.14642,-21.68908 -3.89939,-43.41713 -5.50523,-65.15292 -0.46205,-6.25414 -0.87528,-12.5799 -1.27332,-18.87244 -0.19688,-3.11246 -0.56363,-6.12841 -0.74588,-9.1996 -0.18732,-3.15668 -0.0645,-6.35804 -0.35703,-9.47996 -0.62529,-6.67368 -0.39259,-13.58565 -2.48015,-19.95519 -1.90295,-5.80626 -4.3274,-11.99814 -8.94474,-15.99989 -3.11789,-2.70221 -7.43674,-4.15755 -11.55275,-4.44323 -5.32671,-0.36972 -10.63989,1.65767 -15.60198,3.62955 -10.97419,4.36103 -21.03305,10.92833 -30.60338,17.84643 -8.38712,6.06279 -16.0223,13.1668 -23.26163,20.56229 -5.14539,5.25638 -9.93371,10.89164 -14.25861,16.84141 -7.26838,9.99911 -13.77885,20.5837 -19.52813,31.52707 -4.72198,8.98795 -8.67505,18.38573 -12.22205,27.89883 -4.13586,11.09246 -7.64822,22.43629 -10.52512,33.91982 -3.80364,15.18272 -6.492,30.6401 -8.87125,46.11013 -1.19118,7.74513 -2.15784,15.53558 -2.70064,23.35295 -0.63034,9.07812 -0.38413,18.21517 -0.59833,27.32225 -0.21376,9.08786 -0.46305,18.17485 -0.68545,27.2625 -3.09733,126.56224 -9.03792,379.69286 -9.03792,379.69286 z"
       style="fill:#ffffff;fill-opacity:1;stroke:#000000;stroke-width:3.40125;stroke-linecap:square;stroke-linejoin:miter;stroke-dasharray:none;stroke-opacity:0;paint-order:fill markers stroke"
       id="path1-9"
       sodipodi:nodetypes="csssssscsssssasssssssssssssssssssssssssssc" />
  </g>
</svg>
