<?xml version="1.0" encoding="UTF-8" standalone="no"?>
<svg
   width="1080"
   zoomAndPan="magnify"
   viewBox="0 0 810 809.999993"
   height="1080"
   preserveAspectRatio="xMidYMid meet"
   version="1.0"
   id="svg32"
   sodipodi:docname="raiz_molar_superior.svg"
   inkscape:version="1.4.2 (f4327f4, 2025-05-13)"
   xmlns:inkscape="http://www.inkscape.org/namespaces/inkscape"
   xmlns:sodipodi="http://sodipodi.sourceforge.net/DTD/sodipodi-0.dtd"
   xmlns="http://www.w3.org/2000/svg"
   xmlns:svg="http://www.w3.org/2000/svg">
  <sodipodi:namedview
     id="namedview32"
     pagecolor="#505050"
     bordercolor="#eeeeee"
     borderopacity="1"
     inkscape:showpageshadow="0"
     inkscape:pageopacity="0"
     inkscape:pagecheckerboard="0"
     inkscape:deskcolor="#505050"
     showgrid="false"
     inkscape:zoom="0.70710678"
     inkscape:cx="327.39044"
     inkscape:cy="497.09607"
     inkscape:window-width="1920"
     inkscape:window-height="1009"
     inkscape:window-x="-8"
     inkscape:window-y="-8"
     inkscape:window-maximized="1"
     inkscape:current-layer="svg32" />
  <defs
     id="defs8">
    <clipPath
       id="dfdfd19c84">
      <path
         d="M 458.457031 744.546875 L 461.328125 744.546875 L 461.328125 746.984375 L 458.457031 746.984375 Z M 458.457031 744.546875 "
         clip-rule="nonzero"
         id="path1" />
    </clipPath>
    <clipPath
       id="4fb813178c">
      <path
         d="M 461.324219 745.425781 C 460.050781 747.449219 458.851562 747.074219 458.550781 746.625 C 458.324219 746.25 458.550781 744.976562 458.925781 744.675781 C 459.300781 744.375 460.949219 744.824219 460.949219 744.824219 "
         clip-rule="nonzero"
         id="path2" />
    </clipPath>
    <clipPath
       id="900d9c810d">
      <path
         d="M 0.457031 0.546875 L 3.328125 0.546875 L 3.328125 2.984375 L 0.457031 2.984375 Z M 0.457031 0.546875 "
         clip-rule="nonzero"
         id="path3" />
    </clipPath>
    <clipPath
       id="48275fb38b">
      <path
         d="M 3.324219 1.425781 C 2.050781 3.449219 0.851562 3.074219 0.550781 2.625 C 0.324219 2.25 0.550781 0.976562 0.925781 0.675781 C 1.300781 0.375 2.949219 0.824219 2.949219 0.824219 "
         clip-rule="nonzero"
         id="path4" />
    </clipPath>
    <clipPath
       id="7bf062d813">
      <rect
         x="0"
         width="4"
         y="0"
         height="3"
         id="rect4" />
    </clipPath>
    <clipPath
       id="08c9a32c14">
      <path
         d="M 458.089844 744.023438 L 460.960938 744.023438 L 460.960938 746.460938 L 458.089844 746.460938 Z M 458.089844 744.023438 "
         clip-rule="nonzero"
         id="path5" />
    </clipPath>
    <clipPath
       id="cee4d464f3">
      <path
         d="M 460.949219 744.898438 C 459.675781 746.925781 458.476562 746.550781 458.25 746.101562 C 457.949219 745.726562 458.175781 744.449219 458.550781 744.148438 C 459 743.851562 460.574219 744.300781 460.574219 744.300781 "
         clip-rule="nonzero"
         id="path6" />
    </clipPath>
    <clipPath
       id="f00d35a827">
      <path
         d="M 0.0898438 0.0234375 L 2.960938 0.0234375 L 2.960938 2.460938 L 0.0898438 2.460938 Z M 0.0898438 0.0234375 "
         clip-rule="nonzero"
         id="path7" />
    </clipPath>
    <clipPath
       id="b76a49478c">
      <path
         d="M 2.949219 0.898438 C 1.675781 2.925781 0.476562 2.550781 0.25 2.101562 C -0.0507812 1.726562 0.175781 0.449219 0.550781 0.148438 C 1 -0.148438 2.574219 0.300781 2.574219 0.300781 "
         clip-rule="nonzero"
         id="path8" />
    </clipPath>
    <clipPath
       id="e62e0ee38d">
      <rect
         x="0"
         width="3"
         y="0"
         height="3"
         id="rect8" />
    </clipPath>
  </defs>
  <path
     style="fill:#ffffff;fill-opacity:0;stroke:#000000;stroke-width:6.76744;stroke-linecap:round;stroke-linejoin:round;stroke-dasharray:none;stroke-opacity:1;paint-order:fill markers stroke"
     d="m 199.1427,790.04707 c 0,0 20.65661,-17.45426 41.24428,-22.3147 7.42301,-1.75246 15.3284,-2.30378 22.75329,-0.56138 6.93487,1.62741 14.41619,5.91127 19.27451,10.0346 4.98559,4.23135 3.51558,6.22525 16.6732,9.64865 8.73185,2.2719 18.10922,0.46507 26.79624,-2.56121 5.36459,-1.86888 10.64298,-4.23309 15.76435,-6.8769 5.13575,-2.65122 14.94948,-8.98204 14.94948,-8.98204 0,0 10.82329,-5.31288 20.7475,-6.45583 6.08993,-0.70136 14.7837,-1.3543 22.19393,-1.47793 6.0184,-0.10044 12.03854,0.24469 18.0493,0.59848 6.37614,0.37527 12.74474,0.93188 19.10034,1.61621 6.67788,0.71905 13.34186,1.60888 19.99005,2.61516 6.62883,1.00334 17.04651,1.90824 19.83466,3.41156 2.78816,1.5033 7.96546,6.05193 18.4737,9.12799 5.00663,1.46558 10.15069,2.61866 15.32334,2.79124 5.80891,0.1938 11.66395,-0.60784 17.34435,-1.98182 3.70327,-0.89574 7.15855,-2.78587 10.77527,-4.04933 3.47244,-1.21306 6.92362,-2.55681 10.48445,-3.3889 5.56714,-1.30092 11.23028,-2.36127 16.91633,-2.48508 5.34825,-0.11647 10.7432,0.4245 15.98057,1.64302 6.19207,1.44062 12.339,3.53564 18.02048,6.64582 3.7589,2.05772 7.33099,4.44218 10.78705,7.03781 3.50734,2.63415 6.82615,5.58297 10.05487,8.63106 1.88755,1.78195 5.4349,5.63435 5.4349,5.63435 0,0 0.93936,-25.24411 3.91536,-122.96202 0.82642,-27.13592 2.37427,-78.62092 2.37427,-78.62092 0,0 5.78316,-37.81792 8.32782,-64.1132 2.13075,-22.01816 4.16506,-43.95972 5.62416,-65.99873 0.81265,-12.27462 1.34229,-24.57316 1.74242,-36.87329 0.23483,-7.21847 0.32589,-14.4425 0.38619,-21.66543 0.0577,-6.90144 0.10689,-13.80499 -0.0233,-20.70519 -0.14661,-7.77205 -0.34716,-19.46163 -0.78588,-29.18047 -0.27145,-6.01362 -0.66793,-12.02072 -1.14214,-18.01856 -0.92369,-11.68307 -1.85423,-23.37584 -3.3166,-34.98976 -1.63269,-12.96663 -3.82283,-25.84178 -6.08745,-38.68883 -2.56785,-14.56719 -5.50125,-29.05251 -8.5013,-43.51582 -2.20109,-10.61155 -4.39663,-21.2304 -6.96819,-31.73702 -2.56792,-10.49174 -5.04789,-21.04386 -8.44379,-31.23639 -4.80973,-14.43605 -9.10878,-29.4569 -16.8416,-42.20249 -3.01794,-4.97432 -6.47207,-10.17197 -11.25351,-12.91165 -2.69061,-1.54165 -6.05136,-2.38948 -8.96788,-1.50122 -5.49371,1.67318 -9.94001,6.86042 -13.2845,12.01852 -7.78101,12.00036 -13.29154,28.83945 -20.0024,50.8216 -3.47617,11.38654 -8.80448,34.9542 -8.80448,34.9542 0,0 -4.98688,23.03806 -7.28626,34.60687 -1.69853,8.54585 -3.19751,17.29105 -4.80808,25.70705 -1.53431,8.01737 -1.62572,10.68264 -2.79619,15.75966 -1.17048,5.07701 -3.59731,12.51617 -3.59731,12.51617 l -10.41899,34.43394 -13.13395,38.03324 c 0,0 -6.77144,17.99183 -10.633,26.73763 -3.78567,8.57391 -7.71336,17.10069 -12.27164,25.18971 -3.8107,6.76242 -7.56827,13.71463 -12.55907,19.43413 -3.52901,4.0443 -7.50008,7.83982 -12.0639,10.26069 -2.06303,1.09434 -4.37736,1.82419 -6.66003,1.78731 -3.021,-0.0489 -6.08407,-1.05682 -8.74956,-2.64931 -2.76589,-1.65249 -5.00386,-4.29745 -7.09391,-6.91351 -2.00032,-2.50373 -3.61546,-5.38216 -5.11928,-8.2889 -3.30024,-6.37912 -6.08243,-13.10618 -8.50351,-19.96163 -2.35211,-6.66023 -4.0741,-13.58395 -5.81824,-20.47451 -2.64694,-10.45732 -4.95847,-21.02394 -7.04369,-31.63936 -2.00668,-10.21561 -3.68651,-20.51142 -5.25705,-30.8223 -2.29137,-15.04322 -4.29429,-30.14351 -6.07563,-45.27302 -2.47894,-21.05454 -4.54812,-42.17029 -6.41629,-63.30371 -2.14468,-24.26129 -3.89622,-48.56618 -5.50075,-72.87972 -0.46167,-6.99585 -0.87456,-14.0718 -1.27228,-21.11061 -0.19672,-3.48158 -0.56317,-6.85521 -0.74527,-10.29062 -0.18717,-3.53105 -0.0644,-7.11207 -0.35674,-10.60423 -0.62478,-7.465155 -0.39227,-15.196845 -2.47814,-22.321785 -1.9014,-6.494851 -4.32387,-13.421057 -8.93745,-17.897392 -3.11536,-3.022675 -7.43069,-4.650613 -11.54335,-4.970171 -5.32237,-0.413566 -10.63123,1.854258 -15.58927,4.05999 -10.96526,4.878233 -21.01593,12.224373 -30.57847,19.962923 -8.38029,6.781804 -16.00926,14.728316 -23.24269,23.000885 -5.1412,5.87975 -9.92562,12.18332 -14.247,18.83871 -7.26246,11.18494 -13.76763,23.02482 -19.51224,35.26601 -4.71813,10.05388 -8.66797,20.56618 -12.21209,31.20748 -4.13249,12.40797 -7.642,25.09713 -10.51655,37.94254 -3.80054,16.98331 -6.48671,34.27385 -8.86403,51.57854 -1.19021,8.66367 -2.15608,17.37802 -2.69844,26.12249 -0.62983,10.15474 -0.38382,20.3754 -0.59784,30.56253 -0.21359,10.16563 -0.46268,20.33029 -0.68489,30.49569 -3.09481,141.57186 -9.03057,424.72243 -9.03057,424.72243 z"
     id="path32"
     sodipodi:nodetypes="csasssacsaaaazsaaaaaasaacscsaaasaaaaaaaaaasscasscccaaaaaaaaaaaaaassasaaaaaaaaaaasaac" />
  <g
     id="raiz-distal"
     transform="matrix(0.99918584,0,0,1.1185947,18.934069,-65.069728)">
    <path
       d="m 421.60437,456.43546 c 1.70744,-0.44991 2.55508,-0.76205 3.7736,-1.29465 1.21462,-0.5309 2.36785,-1.18769 3.50197,-1.8843 3.33369,-2.04764 5.44625,-3.78646 9.09466,-7.41916 5.06523,-5.04341 8.7555,-11.32825 12.56931,-17.3737 4.56199,-7.23142 8.49288,-14.85418 12.28163,-22.51907 3.86471,-7.81856 10.64166,-23.90287 10.64166,-23.90287 l 13.14466,-34.00092 10.42748,-30.78321 c 0,0 2.42881,-6.65045 3.60024,-11.18919 1.17143,-4.53875 1.26291,-6.92144 2.79846,-14.0888 1.61189,-7.52373 3.11209,-15.34175 4.81201,-22.98156 2.30125,-10.34227 7.29219,-30.93781 7.29219,-30.93781 0,0 5.33266,-21.06899 8.81165,-31.24831 6.71634,-19.65158 12.23135,-34.70537 20.0187,-45.43344 3.34722,-4.61123 7.79715,-9.24851 13.29533,-10.7443 2.9189,-0.79409 6.28239,-0.0361 8.97518,1.34206 4.78534,2.44921 8.24228,7.0958 11.26268,11.54274 7.73912,11.39429 12.04168,24.82261 16.85533,37.72813 3.39866,9.11191 5.88066,18.54528 8.45067,27.92467 2.57365,9.3927 4.77098,18.88572 6.97387,28.37223 3.00249,12.92989 5.93828,25.87946 8.50822,38.90222 2.26647,11.48499 4.4584,22.9951 6.09242,34.58699 1.46355,10.3826 2.39485,20.83569 3.31931,31.2801 0.4746,5.36195 0.8714,10.73217 1.14308,16.10822 0.43907,8.68844 0.63979,19.13867 0.78652,26.08672 0.13027,6.16863 0.081,12.34026 0.0233,18.51 -0.0603,6.45715 -0.15149,12.91528 -0.38651,19.36843 -0.40046,10.99606 -0.93053,21.9907 -1.74384,32.96395 -1.46029,19.70241 -3.49625,39.31769 -5.62874,59.00146 -2.54673,23.50742 -8.3346,57.31584 -8.3346,57.31584 0,0 -1.54912,46.02651 -2.37621,70.28544 -2.97843,87.35774 -3.91855,109.92544 -3.91855,109.92544 0,0 -3.55024,-3.44396 -5.43933,-5.03699 -3.23135,-2.72492 -6.55287,-5.36111 -10.06306,-7.71598 -3.45888,-2.32044 -7.03388,-4.45209 -10.79584,-6.29165 -5.68611,-2.78044 -11.83805,-4.65334 -18.03516,-5.94123 -5.24164,-1.08933 -10.64098,-1.57294 -15.9936,-1.46883 -5.69068,0.11069 -11.35844,1.05862 -16.93011,2.22162 -3.56373,0.74387 -7.01773,1.94515 -10.49299,3.0296 -3.61967,1.12951 -7.07776,2.81924 -10.78405,3.62002 -5.68504,1.22831 -11.54484,1.94495 -17.35848,1.7717 -5.17687,-0.15428 -10.32512,-1.18511 -15.33583,-2.49531 -10.5168,-2.74993 -15.69056,-6.83254 -18.48875,-8.16023 -2.95306,-1.40117 -12.30637,-2.08458 -18.49397,-2.88579 -6.73315,-0.87185 -16.9104,-1.70692 -20.26066,-2.08912 z"
       style="fill:#ffffff;fill-opacity:1;stroke:#000000;stroke-width:3.40125;stroke-linecap:round;stroke-linejoin:round;stroke-dasharray:none;stroke-opacity:0;paint-order:fill markers stroke"
       id="path1-0"
       inkscape:label="pathDistal"
       sodipodi:nodetypes="casssscccssscssssssssssssssssscscsssssssssssacc" />
  </g>
  <g
     id="raiz-mesial"
     transform="matrix(0.99918584,0,0,1.1185947,18.934069,-65.069728)">
    <path
       d="m 180.50421,764.63728 c 0,0 20.67344,-15.60374 41.27788,-19.94887 7.42906,-1.56667 15.34089,-2.05953 22.77184,-0.50186 6.94051,1.45487 14.42793,5.28455 19.29021,8.97072 4.98965,3.78273 3.51844,5.56524 16.68678,8.62569 8.73897,2.03102 18.12398,0.41576 26.81808,-2.28968 5.36896,-1.67073 10.65166,-3.78429 15.77719,-6.14779 5.13994,-2.37014 14.96167,-8.02976 14.96167,-8.02976 0,0 10.83211,-4.7496 20.76441,-5.77137 6.09488,-0.627 14.79574,-1.21072 22.212,-1.32124 6.02331,-0.0898 12.04835,0.21875 18.06402,0.53502 6.38133,0.33549 13.69261,1.06746 20.0534,1.67924 6.68332,0.64281 4.94326,-284.18897 2.66388,-284.03236 -1.49102,0.10245 -3.38545,0.0967 -5.04738,-0.17146 -2.11671,-0.34157 -4.83714,-1.10293 -6.17097,-1.81476 -2.76814,-1.47728 -5.00793,-3.84183 -7.09969,-6.18053 -2.00195,-2.23828 -3.6184,-4.81153 -5.12344,-7.4101 -3.30294,-5.70279 -6.0874,-11.71664 -8.51044,-17.84527 -2.35403,-5.95411 -4.07743,-12.14376 -5.82299,-18.30378 -2.6491,-9.34862 -4.9625,-18.79496 -7.04942,-28.28491 -2.00832,-9.13255 -3.68952,-18.33678 -5.26134,-27.55449 -2.29323,-13.44832 -4.29779,-26.94766 -6.08058,-40.47312 -2.48096,-18.82231 -4.55183,-37.69935 -6.42152,-56.59218 -2.14642,-21.68908 -3.89939,-43.41713 -5.50523,-65.15292 -0.46205,-6.25414 -0.87528,-12.5799 -1.27332,-18.87244 -0.19688,-3.11246 -0.56363,-6.12841 -0.74588,-9.1996 -0.18732,-3.15668 -0.0645,-6.35804 -0.35703,-9.47996 -0.62529,-6.67368 -0.39259,-13.58565 -2.48015,-19.95519 -1.90295,-5.80626 -4.3274,-11.99814 -8.94474,-15.99989 -3.11789,-2.70221 -7.43674,-4.15755 -11.55275,-4.44323 -5.32671,-0.36972 -10.63989,1.65767 -15.60198,3.62955 -10.97419,4.36103 -21.03305,10.92833 -30.60338,17.84643 -8.38712,6.06279 -16.0223,13.1668 -23.26163,20.56229 -5.14539,5.25638 -9.93371,10.89164 -14.25861,16.84141 -7.26838,9.99911 -13.77885,20.5837 -19.52813,31.52707 -4.72198,8.98795 -8.67505,18.38573 -12.22205,27.89883 -4.13586,11.09246 -7.64822,22.43629 -10.52512,33.91982 -3.80364,15.18272 -6.492,30.6401 -8.87125,46.11013 -1.19118,7.74513 -2.15784,15.53558 -2.70064,23.35295 -0.63034,9.07812 -0.38413,18.21517 -0.59833,27.32225 -0.21376,9.08786 -0.46305,18.17485 -0.68545,27.2625 -3.09733,126.56224 -9.03792,379.69286 -9.03792,379.69286 z"
       style="fill:#ffffff;fill-opacity:1;stroke:#000000;stroke-width:3.40125;stroke-linecap:square;stroke-linejoin:miter;stroke-dasharray:none;stroke-opacity:0;paint-order:fill markers stroke"
       id="path1-9"
       sodipodi:nodetypes="csssssscsssssasssssssssssssssssssssssssssc"
       inkscape:label="pathMesial" />
  </g>
  <g
     id="raiz-palatal"
     transform="matrix(0.99918584,0,0,1.1185947,18.934069,-65.069728)">
    <path
       style="fill:#ffffff;fill-opacity:1;stroke:#000000;stroke-width:3.40125;stroke-linecap:round;stroke-dasharray:none;stroke-opacity:1;paint-order:fill markers stroke"
       d="m 359.78347,239.25056 c 0,0 11.87091,-32.34188 18.87221,-48.06656 7.71749,-17.33322 16.3587,-34.26112 25.45585,-50.9117 7.29704,-13.35583 14.62711,-26.76219 23.33452,-39.24442 4.49389,-6.442069 9.16355,-12.877141 14.84924,-18.296385 6.59037,-6.28153 13.65153,-12.562828 22.0087,-16.175069 3.13496,-1.35503 6.66198,-1.774458 10.07627,-1.856155 3.29915,-0.07894 6.74031,0.117179 9.81111,1.325824 4.1304,1.625696 7.65148,4.634804 10.87176,7.689787 3.10456,2.945203 5.70925,6.433564 7.95495,10.07627 2.30341,3.736303 4.26041,7.742604 5.56848,11.932425 2.51167,8.045043 3.29069,16.551443 4.24263,24.925513 2.42004,21.28863 3.1194,42.7524 3.71232,64.16994 0.35539,12.83732 1.07756,25.73788 -0.0937,38.5266 -0.48697,5.31714 -1.60041,10.84204 -2.87133,15.75872 -2.67343,10.3424 -4.5849,19.67922 -7.04962,30.86484 -1.24929,5.66966 -2.45912,11.65434 -3.69251,17.4807 -0.58915,2.78307 -1.21883,5.55781 -1.7711,8.34843 -0.5459,2.75837 -0.31859,3.64522 -1.52443,8.29673 -1.20584,4.65151 -4.53862,14.01731 -6.86154,21.00831 -2.37124,7.1364 -4.65907,14.30313 -7.22299,21.3726 -4.7951,13.22149 -9.69354,26.42033 -15.25504,39.33817 -4.48326,10.41338 -9.17154,20.76493 -14.58408,30.72698 -3.70727,6.82342 -8.4961,13.01981 -12.22132,19.83344 -2.71396,4.96398 -8.07735,10.10997 -12.10969,13.22803 -3.47663,2.68835 -6.46509,4.84482 -10.29902,5.29842 -3.68258,0.4357 -7.64193,-0.70793 -10.80694,-2.64027 -4.45122,-2.71761 -7.44231,-7.42617 -10.24769,-11.8226 -4.98702,-7.81537 -8.2815,-16.63972 -11.38601,-25.37541 -3.62785,-10.2083 -5.91247,-20.853 -8.39153,-31.39932 -2.85451,-12.14355 -5.32943,-24.38139 -7.45679,-36.6732 -2.78454,-16.08893 -4.93308,-32.28593 -6.93978,-48.49026 -2.31405,-18.68621 -5.87913,-56.18007 -5.87913,-56.18007 z"
       id="path9"
       sodipodi:nodetypes="caaaaaaaaaaaaassaazaaaassaaaaaaacc"
       inkscape:label="pathPalatal" />
  </g>
</svg>
